#!OML:ASF E:\Mandelcareful walks\Project 1\Capture day 1\Session 1\Subject1.ASF
:FULLY-SPECIFIED
:DEGREES
843
root 1.01012 15.6035 5.12267 10.5889 139.806 3.43604
lowerback 33.5596 3.10571 -4.96177
upperback 11.3848 4.67193 -3.19837
thorax -4.52561 3.26115 -2.34703
lowerneck -28.3213 8.3174 3.75911
upperneck 22.9459 15.8168 -15.4845
head 14.3793 5.28896 -3.4118
rclavicle -2.78299e-014 -3.18055e-014
rhumerus 8.5398 29.8701 -66.7994
rradius 65.2334
rwrist -20.7184
rhand -21.0869 -27.8949
rfingers 7.12502
rthumb 5.29045 -57.8089
lclavicle -2.78299e-014 -3.18055e-014
lhumerus -15.3626 -14.8983 74.8124
lradius 42.0769
lwrist 24.9364
lhand -24.4456 -11.4512
lfingers 7.12502
lthumb 2.04696 18.5187
rfemur -47.5855 -7.76173 14.5162
rtibia 44.9117
rfoot -3.24547 10.5389
rtoes -13.424
lfemur -38.2251 -0.692803 -17.916
ltibia 61.3383
lfoot -27.5228 -4.87886
ltoes 4.0938
844
root 1.13919 15.6006 5.12544 10.2666 141.244 2.79465
lowerback 33.4528 2.84229 -4.91459
upperback 11.3737 4.3857 -3.23333
thorax -4.4969 3.13597 -2.30723
lowerneck -28.1696 8.34299 3.67314
upperneck 22.7385 15.9381 -15.6735
head 14.2939 5.33685 -3.44045
rclavicle -5.24792e-014 5.60573e-014
rhumerus 8.35752 30.2169 -66.2938
rradius 65.4627
rwrist -21.532
rhand -21.6748 -27.9887
rfingers 7.12502
rthumb 4.7228 -57.916
lclavicle -5.24792e-014 5.60573e-014
lhumerus -15.4829 -14.9007 75.1117
lradius 42.3921
lwrist 25.0524
lhand -24.6359 -10.6061
lfingers 7.12502
lthumb 1.86322 19.3655
rfemur -47.476 -8.27425 14.1875
rtibia 45.942
rfoot -3.96581 11.3915
rtoes -8.3306
lfemur -38.1629 -0.963619 -17.9551
ltibia 61.2756
lfoot -27.3517 -6.11931
ltoes 4.30057
845
root 1.27953 15.6124 5.1305 10.0564 142.724 2.34466
lowerback 33.3699 2.64842 -4.74707
upperback 11.353 4.22487 -3.27363
thorax -4.48326 3.07488 -2.38025
lowerneck -28.0137 8.35597 3.80375
upperneck 22.6139 15.9454 -15.8278
head 14.2422 5.35319 -3.52019
rclavicle -4.8901e-014 -3.02153e-014
rhumerus 7.78986 30.0861 -66.4783
rradius 65.6275
rwrist -21.742
rhand -21.6887 -28.2826
rfingers 7.12502
rthumb 4.70933 -58.2102
lclavicle -4.8901e-014 -3.02153e-014
lhumerus -15.4301 -15.1172 75.3039
lradius 42.567
lwrist 24.9377
lhand -24.7032 -10.7522
lfingers 7.12502
lthumb 1.79827 19.2199
rfemur -47.2562 -8.70344 14.0449
rtibia 46.8647
rfoot -4.85387 12.3373
rtoes -4.15472
lfemur -38.0567 -1.21502 -17.7728
ltibia 61.2482
lfoot -27.1262 -7.41164
ltoes 4.53018
846
root 1.43423 15.6256 5.13672 9.75116 144.16 2.04306
lowerback 33.5775 2.62823 -4.44578
upperback 11.311 4.32513 -3.39527
thorax -4.58617 3.1555 -2.71479
lowerneck -28.0474 8.28771 4.31368
upperneck 22.7962 15.7116 -15.9225
head 14.3524 5.27715 -3.70145
rclavicle 3.77691e-014 -8.15017e-014
rhumerus 6.75312 29.2511 -67.2794
rradius 65.6422
rwrist -21.4499
rhand -21.301 -28.116
rfingers 7.12502
rthumb 5.08371 -58.035
lclavicle 3.77691e-014 -8.15017e-014
lhumerus -15.2119 -16.1643 75.289
lradius 42.8024
lwrist 25.1826
lhand -24.9639 -10.8822
lfingers 7.12502
lthumb 1.54646 19.092
rfemur -46.6346 -8.82261 13.8999
rtibia 47.5127
rfoot -6.53219 10.9323
rtoes -6.77087
lfemur -37.6969 -1.46752 -17.4098
ltibia 61.1703
lfoot -27.0246 -8.52661
ltoes 4.27841
847
root 1.53584 15.5934 5.14061 9.97926 145.662 1.70718
lowerback 33.4601 2.23644 -3.48974
upperback 11.2065 4.12404 -3.66943
thorax -4.6201 3.08982 -3.43596
lowerneck -28.1619 8.25 4.70335
upperneck 22.8414 15.5835 -16.1276
head 14.4386 5.22709 -3.87801
rclavicle 2.90226e-014 -8.11041e-014
rhumerus 6.09719 28.8022 -67.4704
rradius 65.579
rwrist -21.326
rhand -21.0296 -27.5311
rfingers 7.12502
rthumb 5.34577 -57.4437
lclavicle 2.90226e-014 -8.11041e-014
lhumerus -15.0682 -16.9842 75.3646
lradius 43.2002
lwrist 25.6677
lhand -25.6357 -10.427
lfingers 7.12502
lthumb 0.897642 19.5509
rfemur -46.9262 -9.52601 13.7651
rtibia 47.9639
rfoot -7.21139 9.97295
rtoes -7.13706
lfemur -38.3804 -2.25402 -17.2399
ltibia 61.2666
lfoot -26.7446 -9.0779
ltoes 4.45898
848
root 1.70807 15.6128 5.14877 9.84806 146.825 1.65613
lowerback 33.6039 2.23576 -3.56277
upperback 11.1945 4.13425 -3.56612
thorax -4.69284 3.10389 -3.30322
lowerneck -28.0989 8.32809 4.6913
upperneck 22.6852 15.6858 -16.1594
head 14.3752 5.27929 -3.85978
rclavicle -6.91771e-014 3.26007e-014
rhumerus 5.74402 28.8645 -67.5706
rradius 65.3439
rwrist -21.1319
rhand -21.0301 -27.3387
rfingers 7.12502
rthumb 5.34525 -57.2513
lclavicle -6.91771e-014 3.26007e-014
lhumerus -15.1006 -16.7826 75.5356
lradius 43.4341
lwrist 25.814
lhand -25.7608 -10.7451
lfingers 7.12502
lthumb 0.776737 19.2332
rfemur -46.2229 -9.37833 14.0195
rtibia 48.1947
rfoot -8.211 8.79981
rtoes -5.92921
lfemur -37.9386 -2.24168 -16.6166
ltibia 61.1499
lfoot -26.6307 -10.1789
ltoes 4.62207
